<?xml version="1.0" standalone="no"?>
<!DOCTYPE svg PUBLIC "-//W3C//DTD SVG 20010904//EN"
 "http://www.w3.org/TR/2001/REC-SVG-20010904/DTD/svg10.dtd">
<svg version="1.0" xmlns="http://www.w3.org/2000/svg"
 width="500.000000pt" height="110.000000pt" viewBox="0 0 500.000000 110.000000"
 preserveAspectRatio="xMidYMid meet">
<metadata>
Created by potrace 1.16, written by Peter Selinger 2001-2019
</metadata>
<g transform="translate(0.000000,110.000000) scale(0.100000,-0.100000)"
fill="#000000" stroke="none">
<path d="M203 1065 c-58 -25 -72 -97 -28 -140 32 -33 110 -35 143 -5 48 45 35
121 -24 146 -41 17 -50 17 -91 -1z"/>
<path d="M1322 979 c-23 -4 -47 -11 -52 -14 -6 -3 -10 -33 -10 -65 0 -50 -3
-61 -21 -71 -12 -6 -35 -9 -53 -6 -54 8 -76 -7 -76 -52 0 -21 6 -43 13 -49 7
-6 40 -12 72 -14 l60 -3 5 -125 c4 -92 11 -135 24 -163 34 -70 107 -102 233
-100 72 0 91 4 148 32 36 18 73 44 82 57 15 23 15 28 0 60 -9 19 -23 34 -31
34 -9 0 -37 -14 -63 -30 -37 -24 -58 -30 -101 -30 -46 0 -58 4 -83 29 -28 29
-29 32 -29 135 0 78 3 106 13 107 6 0 74 0 149 -1 l137 -1 6 24 c4 14 5 38 3
53 l-3 29 -139 3 c-82 1 -145 7 -153 14 -9 7 -13 35 -13 84 l0 74 -37 -1 c-21
-1 -57 -5 -81 -10z"/>
<path d="M601 825 c-106 -30 -151 -75 -151 -154 0 -88 69 -123 285 -142 159
-14 194 -26 195 -65 0 -24 -79 -44 -168 -44 -100 0 -188 20 -249 56 -23 13
-46 24 -52 24 -17 0 -53 -59 -47 -78 21 -65 275 -125 434 -103 115 16 153 30
194 70 44 45 55 80 39 132 -22 73 -92 101 -301 119 -176 16 -211 34 -155 79
53 41 190 35 318 -15 l49 -19 19 24 c34 42 22 62 -56 95 -61 26 -84 30 -185
33 -81 2 -131 -2 -169 -12z"/>
<path d="M2884 821 c-22 -10 -57 -38 -79 -62 -21 -24 -35 -39 -31 -32 3 6 2
14 -4 18 -5 3 -10 17 -10 29 0 37 -22 47 -92 44 l-63 -3 0 -240 0 -240 85 0
85 0 5 145 c6 162 16 196 73 230 61 38 123 14 148 -55 7 -19 18 -36 24 -39 22
-8 128 19 139 36 12 20 -5 76 -37 122 -43 61 -161 84 -243 47z"/>
<path d="M4221 824 c-83 -18 -199 -71 -206 -95 -8 -25 22 -79 44 -79 10 0 48
14 83 30 85 40 205 63 283 55 88 -10 152 -51 123 -80 -3 -3 -59 -10 -124 -15
-228 -19 -333 -47 -391 -106 -28 -27 -33 -39 -33 -79 0 -40 5 -52 33 -80 43
-43 100 -58 212 -59 134 0 252 42 298 105 10 14 16 17 15 9 -4 -26 35 -79 72
-97 45 -22 151 -22 203 0 39 17 47 40 26 79 -9 17 -17 19 -50 14 -31 -5 -43
-2 -59 14 -18 18 -20 33 -20 139 0 106 -2 122 -22 152 -27 41 -110 85 -187 99
-74 14 -223 11 -300 -6z m326 -296 c-26 -64 -111 -101 -237 -102 -59 -1 -82 3
-107 19 -29 19 -31 23 -20 45 8 16 27 29 57 37 45 13 183 29 273 32 l47 1 -13
-32z"/>
<path d="M171 816 c-8 -9 -11 -83 -9 -247 l3 -234 85 0 85 0 3 232 c3 272 6
263 -92 263 -42 0 -67 -5 -75 -14z"/>
<path d="M1828 823 c-16 -4 -18 -20 -18 -146 1 -222 24 -283 125 -332 47 -23
70 -28 138 -28 101 -1 171 22 229 75 45 41 58 41 58 -1 0 -50 18 -62 90 -59
l65 3 3 234 c1 129 -1 238 -5 242 -12 12 -141 15 -152 4 -5 -6 -11 -69 -13
-141 -3 -122 -6 -134 -30 -171 -67 -102 -248 -109 -308 -11 -17 29 -20 50 -20
175 0 130 -2 143 -19 153 -19 10 -109 12 -143 3z"/>
<path d="M3253 823 c-23 -4 -23 -6 -23 -161 0 -180 9 -212 77 -273 57 -52 127
-73 222 -67 103 6 154 33 217 113 14 19 15 17 11 -23 -7 -62 -42 -108 -107
-140 -49 -24 -66 -27 -155 -26 -85 0 -111 5 -170 28 -109 43 -111 43 -134 5
-43 -70 -25 -94 104 -135 94 -30 251 -42 335 -26 146 28 261 106 288 198 8 27
12 120 12 271 l0 231 -22 6 c-39 10 -113 7 -130 -6 -13 -11 -17 -38 -20 -139
-3 -118 -5 -128 -31 -168 -70 -105 -234 -107 -298 -4 -22 34 -24 52 -27 175
-4 130 -5 136 -25 142 -24 6 -89 6 -124 -1z"/>
</g>
</svg>
